<svg xmlns="http://www.w3.org/2000/svg" xmlns:xlink="http://www.w3.org/1999/xlink" contentStyleType="text/css" data-diagram-type="CLASS" height="716px" preserveAspectRatio="none" style="width:3686px;height:716px;background:#FFFFFF;" version="1.1" viewBox="0 0 3686 716" width="3686px" zoomAndPan="magnify"><title>Auto-generated diagram from flexibility_products_auto.puml</title><defs/><g><g class="title" data-source-line="1"><text fill="#000000" font-family="sans-serif" font-size="14" font-weight="bold" lengthAdjust="spacing" textLength="480.2383" x="1596.022" y="22.9951">Auto-generated diagram from flexibility_products_auto.puml</text></g><!--cluster Enums--><g class="cluster" data-entity="Enums" data-source-line="4" data-uid="ent0002" id="cluster_Enums"><path d="M516.5,54.2969 L569.918,54.2969 A3.75,3.75 0 0 1 572.418,56.7969 L579.418,76.5938 L1637.5,76.5938 A2.5,2.5 0 0 1 1640,79.0938 L1640,706.7969 A2.5,2.5 0 0 1 1637.5,709.2969 L516.5,709.2969 A2.5,2.5 0 0 1 514,706.7969 L514,56.7969 A2.5,2.5 0 0 1 516.5,54.2969" fill="none" style="stroke:#000000;stroke-width:1.5;"/><line style="stroke:#000000;stroke-width:1.5;" x1="514" x2="579.418" y1="76.5938" y2="76.5938"/><text fill="#000000" font-family="sans-serif" font-size="14" font-weight="bold" lengthAdjust="spacing" textLength="52.418" x="518" y="69.292">Enums</text></g><!--class ServiceStructureEnum--><g class="entity" data-entity="ServiceStructureEnum" data-source-line="5" data-uid="ent0003" id="entity_ServiceStructureEnum"><rect fill="#F1F1F1" height="88.8594" rx="2.5" ry="2.5" style="stroke:#181818;stroke-width:0.5;" width="194.4648" x="591" y="97.2969"/><ellipse cx="608.2772" cy="117.4297" fill="#ADD1B2" rx="11" ry="11" style="stroke:#181818;stroke-width:1;"/><path d="M611.246,123.0703 Q610.6679,123.3672 610.0272,123.5078 Q609.3866,123.6641 608.6835,123.6641 Q606.1835,123.6641 604.8554,122.0234 Q603.5429,120.3672 603.5429,117.2422 Q603.5429,114.1172 604.8554,112.4609 Q606.1835,110.8047 608.6835,110.8047 Q609.3866,110.8047 610.0272,110.9609 Q610.6835,111.1172 611.246,111.4141 L611.246,114.1328 Q610.621,113.5547 610.0272,113.2891 Q609.4335,113.0078 608.8085,113.0078 Q607.4647,113.0078 606.7772,114.0859 Q606.0897,115.1484 606.0897,117.2422 Q606.0897,119.3359 606.7772,120.4141 Q607.4647,121.4766 608.8085,121.4766 Q609.4335,121.4766 610.0272,121.2109 Q610.621,120.9297 611.246,120.3516 L611.246,123.0703 Z " fill="#000000"/><text fill="#000000" font-family="sans-serif" font-size="12" font-style="italic" lengthAdjust="spacing" textLength="91.752" x="655.6095" y="113.4355">&#171;enumeration&#187;</text><text fill="#000000" font-family="sans-serif" font-size="14" lengthAdjust="spacing" textLength="157.4043" x="622.7833" y="129.2607">ServiceStructureEnum</text><line style="stroke:#181818;stroke-width:0.5;" x1="592" x2="784.4648" y1="137.5625" y2="137.5625"/><text fill="#000000" font-family="sans-serif" font-size="14" lengthAdjust="spacing" textLength="106.6133" x="597" y="154.5576">Utilisation Only</text><text fill="#000000" font-family="sans-serif" font-size="14" lengthAdjust="spacing" textLength="182.4648" x="597" y="170.8545">Availability and Utilisation</text><line style="stroke:#181818;stroke-width:0.5;" x1="592" x2="784.4648" y1="178.1563" y2="178.1563"/></g><!--class AcceptanceTimingEnum--><g class="entity" data-entity="AcceptanceTimingEnum" data-source-line="9" data-uid="ent0004" id="entity_AcceptanceTimingEnum"><rect fill="#F1F1F1" height="88.8594" rx="2.5" ry="2.5" style="stroke:#181818;stroke-width:0.5;" width="201.6816" x="820" y="97.2969"/><ellipse cx="835" cy="117.4297" fill="#ADD1B2" rx="11" ry="11" style="stroke:#181818;stroke-width:1;"/><path d="M837.9688,123.0703 Q837.3906,123.3672 836.75,123.5078 Q836.1094,123.6641 835.4063,123.6641 Q832.9063,123.6641 831.5781,122.0234 Q830.2656,120.3672 830.2656,117.2422 Q830.2656,114.1172 831.5781,112.4609 Q832.9063,110.8047 835.4063,110.8047 Q836.1094,110.8047 836.75,110.9609 Q837.4063,111.1172 837.9688,111.4141 L837.9688,114.1328 Q837.3438,113.5547 836.75,113.2891 Q836.1563,113.0078 835.5313,113.0078 Q834.1875,113.0078 833.5,114.0859 Q832.8125,115.1484 832.8125,117.2422 Q832.8125,119.3359 833.5,120.4141 Q834.1875,121.4766 835.5313,121.4766 Q836.1563,121.4766 836.75,121.2109 Q837.3438,120.9297 837.9688,120.3516 L837.9688,123.0703 Z " fill="#000000"/><text fill="#000000" font-family="sans-serif" font-size="12" font-style="italic" lengthAdjust="spacing" textLength="91.752" x="887.9648" y="113.4355">&#171;enumeration&#187;</text><text fill="#000000" font-family="sans-serif" font-size="14" lengthAdjust="spacing" textLength="169.6816" x="849" y="129.2607">AcceptanceTimingEnum</text><line style="stroke:#181818;stroke-width:0.5;" x1="821" x2="1020.6816" y1="137.5625" y2="137.5625"/><text fill="#000000" font-family="sans-serif" font-size="14" lengthAdjust="spacing" textLength="59.9033" x="826" y="154.5576">At Trade</text><text fill="#000000" font-family="sans-serif" font-size="14" lengthAdjust="spacing" textLength="79.2012" x="826" y="170.8545">After Trade</text><line style="stroke:#181818;stroke-width:0.5;" x1="821" x2="1020.6816" y1="178.1563" y2="178.1563"/></g><!--class YesNo--><g class="entity" data-entity="YesNo" data-source-line="13" data-uid="ent0005" id="entity_YesNo"><rect fill="#F1F1F1" height="88.8594" rx="2.5" ry="2.5" style="stroke:#181818;stroke-width:0.5;" width="119.752" x="1057" y="97.2969"/><ellipse cx="1072" cy="117.4297" fill="#ADD1B2" rx="11" ry="11" style="stroke:#181818;stroke-width:1;"/><path d="M1074.9688,123.0703 Q1074.3906,123.3672 1073.75,123.5078 Q1073.1094,123.6641 1072.4063,123.6641 Q1069.9063,123.6641 1068.5781,122.0234 Q1067.2656,120.3672 1067.2656,117.2422 Q1067.2656,114.1172 1068.5781,112.4609 Q1069.9063,110.8047 1072.4063,110.8047 Q1073.1094,110.8047 1073.75,110.9609 Q1074.4063,111.1172 1074.9688,111.4141 L1074.9688,114.1328 Q1074.3438,113.5547 1073.75,113.2891 Q1073.1563,113.0078 1072.5313,113.0078 Q1071.1875,113.0078 1070.5,114.0859 Q1069.8125,115.1484 1069.8125,117.2422 Q1069.8125,119.3359 1070.5,120.4141 Q1071.1875,121.4766 1072.5313,121.4766 Q1073.1563,121.4766 1073.75,121.2109 Q1074.3438,120.9297 1074.9688,120.3516 L1074.9688,123.0703 Z " fill="#000000"/><text fill="#000000" font-family="sans-serif" font-size="12" font-style="italic" lengthAdjust="spacing" textLength="91.752" x="1084" y="113.4355">&#171;enumeration&#187;</text><text fill="#000000" font-family="sans-serif" font-size="14" lengthAdjust="spacing" textLength="43.4971" x="1108.1274" y="129.2607">YesNo</text><line style="stroke:#181818;stroke-width:0.5;" x1="1058" x2="1175.752" y1="137.5625" y2="137.5625"/><text fill="#000000" font-family="sans-serif" font-size="14" lengthAdjust="spacing" textLength="24.459" x="1063" y="154.5576">Yes</text><text fill="#000000" font-family="sans-serif" font-size="14" lengthAdjust="spacing" textLength="19.0381" x="1063" y="170.8545">No</text><line style="stroke:#181818;stroke-width:0.5;" x1="1058" x2="1175.752" y1="178.1563" y2="178.1563"/></g><!--class AvailabilityPaymentUnit--><g class="entity" data-entity="AvailabilityPaymentUnit" data-source-line="17" data-uid="ent0006" id="entity_AvailabilityPaymentUnit"><rect fill="#F1F1F1" height="105.1563" rx="2.5" ry="2.5" style="stroke:#181818;stroke-width:0.5;" width="199.5488" x="1212" y="89.2969"/><ellipse cx="1227" cy="109.4297" fill="#ADD1B2" rx="11" ry="11" style="stroke:#181818;stroke-width:1;"/><path d="M1229.9688,115.0703 Q1229.3906,115.3672 1228.75,115.5078 Q1228.1094,115.6641 1227.4063,115.6641 Q1224.9063,115.6641 1223.5781,114.0234 Q1222.2656,112.3672 1222.2656,109.2422 Q1222.2656,106.1172 1223.5781,104.4609 Q1224.9063,102.8047 1227.4063,102.8047 Q1228.1094,102.8047 1228.75,102.9609 Q1229.4063,103.1172 1229.9688,103.4141 L1229.9688,106.1328 Q1229.3438,105.5547 1228.75,105.2891 Q1228.1563,105.0078 1227.5313,105.0078 Q1226.1875,105.0078 1225.5,106.0859 Q1224.8125,107.1484 1224.8125,109.2422 Q1224.8125,111.3359 1225.5,112.4141 Q1226.1875,113.4766 1227.5313,113.4766 Q1228.1563,113.4766 1228.75,113.2109 Q1229.3438,112.9297 1229.9688,112.3516 L1229.9688,115.0703 Z " fill="#000000"/><text fill="#000000" font-family="sans-serif" font-size="12" font-style="italic" lengthAdjust="spacing" textLength="91.752" x="1278.8984" y="105.4355">&#171;enumeration&#187;</text><text fill="#000000" font-family="sans-serif" font-size="14" lengthAdjust="spacing" textLength="167.5488" x="1241" y="121.2607">AvailabilityPaymentUnit</text><line style="stroke:#181818;stroke-width:0.5;" x1="1213" x2="1410.5488" y1="129.5625" y2="129.5625"/><text fill="#000000" font-family="sans-serif" font-size="14" lengthAdjust="spacing" textLength="53.1357" x="1218" y="146.5576">&#163;/MW/h</text><text fill="#000000" font-family="sans-serif" font-size="14" lengthAdjust="spacing" textLength="48.4189" x="1218" y="162.8545">&#163;/MWh</text><text fill="#000000" font-family="sans-serif" font-size="14" lengthAdjust="spacing" textLength="22.4971" x="1218" y="179.1514">&#163;/h</text><line style="stroke:#181818;stroke-width:0.5;" x1="1213" x2="1410.5488" y1="186.4531" y2="186.4531"/></g><!--class AvailabilityPeriodUnit--><g class="entity" data-entity="AvailabilityPeriodUnit" data-source-line="22" data-uid="ent0007" id="entity_AvailabilityPeriodUnit"><rect fill="#F1F1F1" height="105.1563" rx="2.5" ry="2.5" style="stroke:#181818;stroke-width:0.5;" width="316.2881" x="530" y="369.2969"/><ellipse cx="609.0029" cy="389.4297" fill="#ADD1B2" rx="11" ry="11" style="stroke:#181818;stroke-width:1;"/><path d="M611.9717,395.0703 Q611.3936,395.3672 610.7529,395.5078 Q610.1123,395.6641 609.4092,395.6641 Q606.9092,395.6641 605.5811,394.0234 Q604.2686,392.3672 604.2686,389.2422 Q604.2686,386.1172 605.5811,384.4609 Q606.9092,382.8047 609.4092,382.8047 Q610.1123,382.8047 610.7529,382.9609 Q611.4092,383.1172 611.9717,383.4141 L611.9717,386.1328 Q611.3467,385.5547 610.7529,385.2891 Q610.1592,385.0078 609.5342,385.0078 Q608.1904,385.0078 607.5029,386.0859 Q606.8154,387.1484 606.8154,389.2422 Q606.8154,391.3359 607.5029,392.4141 Q608.1904,393.4766 609.5342,393.4766 Q610.1592,393.4766 610.7529,393.2109 Q611.3467,392.9297 611.9717,392.3516 L611.9717,395.0703 Z " fill="#000000"/><text fill="#000000" font-family="sans-serif" font-size="12" font-style="italic" lengthAdjust="spacing" textLength="91.752" x="658.5181" y="385.4355">&#171;enumeration&#187;</text><text fill="#000000" font-family="sans-serif" font-size="14" lengthAdjust="spacing" textLength="149.7822" x="629.5029" y="401.2607">AvailabilityPeriodUnit</text><line style="stroke:#181818;stroke-width:0.5;" x1="531" x2="845.2881" y1="409.5625" y2="409.5625"/><text fill="#000000" font-family="sans-serif" font-size="14" lengthAdjust="spacing" textLength="133.4922" x="536" y="426.5576">Settlement Periods</text><text fill="#000000" font-family="sans-serif" font-size="14" lengthAdjust="spacing" textLength="55.1113" x="536" y="442.8545">Minutes</text><line style="stroke:#181818;stroke-width:0.5;" x1="531" x2="845.2881" y1="450.1563" y2="450.1563"/><text fill="#000000" font-family="sans-serif" font-size="14" lengthAdjust="spacing" textLength="304.2881" x="536" y="467.1514">Electricity Forward Agreement (EFA) blocks</text></g><!--class DeliveryExpectationEnum--><g class="entity" data-entity="DeliveryExpectationEnum" data-source-line="27" data-uid="ent0008" id="entity_DeliveryExpectationEnum"><rect fill="#F1F1F1" height="88.8594" rx="2.5" ry="2.5" style="stroke:#181818;stroke-width:0.5;" width="213.5557" x="881" y="377.2969"/><ellipse cx="896" cy="397.4297" fill="#ADD1B2" rx="11" ry="11" style="stroke:#181818;stroke-width:1;"/><path d="M898.9688,403.0703 Q898.3906,403.3672 897.75,403.5078 Q897.1094,403.6641 896.4063,403.6641 Q893.9063,403.6641 892.5781,402.0234 Q891.2656,400.3672 891.2656,397.2422 Q891.2656,394.1172 892.5781,392.4609 Q893.9063,390.8047 896.4063,390.8047 Q897.1094,390.8047 897.75,390.9609 Q898.4063,391.1172 898.9688,391.4141 L898.9688,394.1328 Q898.3438,393.5547 897.75,393.2891 Q897.1563,393.0078 896.5313,393.0078 Q895.1875,393.0078 894.5,394.0859 Q893.8125,395.1484 893.8125,397.2422 Q893.8125,399.3359 894.5,400.4141 Q895.1875,401.4766 896.5313,401.4766 Q897.1563,401.4766 897.75,401.2109 Q898.3438,400.9297 898.9688,400.3516 L898.9688,403.0703 Z " fill="#000000"/><text fill="#000000" font-family="sans-serif" font-size="12" font-style="italic" lengthAdjust="spacing" textLength="91.752" x="954.9019" y="393.4355">&#171;enumeration&#187;</text><text fill="#000000" font-family="sans-serif" font-size="14" lengthAdjust="spacing" textLength="181.5557" x="910" y="409.2607">DeliveryExpectationEnum</text><line style="stroke:#181818;stroke-width:0.5;" x1="882" x2="1093.5557" y1="417.5625" y2="417.5625"/><text fill="#000000" font-family="sans-serif" font-size="14" lengthAdjust="spacing" textLength="79.0713" x="887" y="434.5576">Continuous</text><text fill="#000000" font-family="sans-serif" font-size="14" lengthAdjust="spacing" textLength="96.3047" x="887" y="450.8545">Peak Delivery</text><line style="stroke:#181818;stroke-width:0.5;" x1="882" x2="1093.5557" y1="458.1563" y2="458.1563"/></g><!--class UtilisationInstructionTimingEnum--><g class="entity" data-entity="UtilisationInstructionTimingEnum" data-source-line="31" data-uid="ent0009" id="entity_UtilisationInstructionTimingEnum"><rect fill="#F1F1F1" height="137.75" rx="2.5" ry="2.5" style="stroke:#181818;stroke-width:0.5;" width="264.9824" x="1130.5" y="352.7969"/><ellipse cx="1145.5" cy="372.9297" fill="#ADD1B2" rx="11" ry="11" style="stroke:#181818;stroke-width:1;"/><path d="M1148.4688,378.5703 Q1147.8906,378.8672 1147.25,379.0078 Q1146.6094,379.1641 1145.9063,379.1641 Q1143.4063,379.1641 1142.0781,377.5234 Q1140.7656,375.8672 1140.7656,372.7422 Q1140.7656,369.6172 1142.0781,367.9609 Q1143.4063,366.3047 1145.9063,366.3047 Q1146.6094,366.3047 1147.25,366.4609 Q1147.9063,366.6172 1148.4688,366.9141 L1148.4688,369.6328 Q1147.8438,369.0547 1147.25,368.7891 Q1146.6563,368.5078 1146.0313,368.5078 Q1144.6875,368.5078 1144,369.5859 Q1143.3125,370.6484 1143.3125,372.7422 Q1143.3125,374.8359 1144,375.9141 Q1144.6875,376.9766 1146.0313,376.9766 Q1146.6563,376.9766 1147.25,376.7109 Q1147.8438,376.4297 1148.4688,375.8516 L1148.4688,378.5703 Z " fill="#000000"/><text fill="#000000" font-family="sans-serif" font-size="12" font-style="italic" lengthAdjust="spacing" textLength="91.752" x="1230.1152" y="368.9355">&#171;enumeration&#187;</text><text fill="#000000" font-family="sans-serif" font-size="14" lengthAdjust="spacing" textLength="232.9824" x="1159.5" y="384.7607">UtilisationInstructionTimingEnum</text><line style="stroke:#181818;stroke-width:0.5;" x1="1131.5" x2="1394.4824" y1="393.0625" y2="393.0625"/><text fill="#000000" font-family="sans-serif" font-size="14" lengthAdjust="spacing" textLength="59.9033" x="1136.5" y="410.0576">At Trade</text><text fill="#000000" font-family="sans-serif" font-size="14" lengthAdjust="spacing" textLength="82.1406" x="1136.5" y="426.3545">Operational</text><text fill="#000000" font-family="sans-serif" font-size="14" lengthAdjust="spacing" textLength="69.9521" x="1136.5" y="442.6514">Real Time</text><text fill="#000000" font-family="sans-serif" font-size="14" lengthAdjust="spacing" textLength="76.624" x="1136.5" y="458.9482">Day Ahead</text><text fill="#000000" font-family="sans-serif" font-size="14" lengthAdjust="spacing" textLength="88.1563" x="1136.5" y="475.2451">Week Ahead</text><line style="stroke:#181818;stroke-width:0.5;" x1="1131.5" x2="1394.4824" y1="482.5469" y2="482.5469"/></g><!--class UtilisationPaymentUnit--><g class="entity" data-entity="UtilisationPaymentUnit" data-source-line="38" data-uid="ent0010" id="entity_UtilisationPaymentUnit"><rect fill="#F1F1F1" height="88.8594" rx="2.5" ry="2.5" style="stroke:#181818;stroke-width:0.5;" width="192.5146" x="1430.5" y="377.2969"/><ellipse cx="1445.5" cy="397.4297" fill="#ADD1B2" rx="11" ry="11" style="stroke:#181818;stroke-width:1;"/><path d="M1448.4688,403.0703 Q1447.8906,403.3672 1447.25,403.5078 Q1446.6094,403.6641 1445.9063,403.6641 Q1443.4063,403.6641 1442.0781,402.0234 Q1440.7656,400.3672 1440.7656,397.2422 Q1440.7656,394.1172 1442.0781,392.4609 Q1443.4063,390.8047 1445.9063,390.8047 Q1446.6094,390.8047 1447.25,390.9609 Q1447.9063,391.1172 1448.4688,391.4141 L1448.4688,394.1328 Q1447.8438,393.5547 1447.25,393.2891 Q1446.6563,393.0078 1446.0313,393.0078 Q1444.6875,393.0078 1444,394.0859 Q1443.3125,395.1484 1443.3125,397.2422 Q1443.3125,399.3359 1444,400.4141 Q1444.6875,401.4766 1446.0313,401.4766 Q1446.6563,401.4766 1447.25,401.2109 Q1447.8438,400.9297 1448.4688,400.3516 L1448.4688,403.0703 Z " fill="#000000"/><text fill="#000000" font-family="sans-serif" font-size="12" font-style="italic" lengthAdjust="spacing" textLength="91.752" x="1493.8813" y="393.4355">&#171;enumeration&#187;</text><text fill="#000000" font-family="sans-serif" font-size="14" lengthAdjust="spacing" textLength="160.5146" x="1459.5" y="409.2607">UtilisationPaymentUnit</text><line style="stroke:#181818;stroke-width:0.5;" x1="1431.5" x2="1622.0146" y1="417.5625" y2="417.5625"/><text fill="#000000" font-family="sans-serif" font-size="14" lengthAdjust="spacing" textLength="48.4189" x="1436.5" y="434.5576">&#163;/MWh</text><text fill="#000000" font-family="sans-serif" font-size="14" lengthAdjust="spacing" textLength="93.4814" x="1436.5" y="450.8545">&#163;/MW/season</text><line style="stroke:#181818;stroke-width:0.5;" x1="1431.5" x2="1622.0146" y1="458.1563" y2="458.1563"/></g><!--class UtilisationPeriodUnit--><g class="entity" data-entity="UtilisationPeriodUnit" data-source-line="42" data-uid="ent0011" id="entity_UtilisationPeriodUnit"><rect fill="#F1F1F1" height="105.1563" rx="2.5" ry="2.5" style="stroke:#181818;stroke-width:0.5;" width="316.2881" x="530" y="588.2969"/><ellipse cx="612.52" cy="608.4297" fill="#ADD1B2" rx="11" ry="11" style="stroke:#181818;stroke-width:1;"/><path d="M615.4888,614.0703 Q614.9106,614.3672 614.27,614.5078 Q613.6294,614.6641 612.9263,614.6641 Q610.4263,614.6641 609.0981,613.0234 Q607.7856,611.3672 607.7856,608.2422 Q607.7856,605.1172 609.0981,603.4609 Q610.4263,601.8047 612.9263,601.8047 Q613.6294,601.8047 614.27,601.9609 Q614.9263,602.1172 615.4888,602.4141 L615.4888,605.1328 Q614.8638,604.5547 614.27,604.2891 Q613.6763,604.0078 613.0513,604.0078 Q611.7075,604.0078 611.02,605.0859 Q610.3325,606.1484 610.3325,608.2422 Q610.3325,610.3359 611.02,611.4141 Q611.7075,612.4766 613.0513,612.4766 Q613.6763,612.4766 614.27,612.2109 Q614.8638,611.9297 615.4888,611.3516 L615.4888,614.0703 Z " fill="#000000"/><text fill="#000000" font-family="sans-serif" font-size="12" font-style="italic" lengthAdjust="spacing" textLength="91.752" x="658.5181" y="604.4355">&#171;enumeration&#187;</text><text fill="#000000" font-family="sans-serif" font-size="14" lengthAdjust="spacing" textLength="142.748" x="633.02" y="620.2607">UtilisationPeriodUnit</text><line style="stroke:#181818;stroke-width:0.5;" x1="531" x2="845.2881" y1="628.5625" y2="628.5625"/><text fill="#000000" font-family="sans-serif" font-size="14" lengthAdjust="spacing" textLength="133.4922" x="536" y="645.5576">Settlement Periods</text><text fill="#000000" font-family="sans-serif" font-size="14" lengthAdjust="spacing" textLength="55.1113" x="536" y="661.8545">Minutes</text><line style="stroke:#181818;stroke-width:0.5;" x1="531" x2="845.2881" y1="669.1563" y2="669.1563"/><text fill="#000000" font-family="sans-serif" font-size="14" lengthAdjust="spacing" textLength="304.2881" x="536" y="686.1514">Electricity Forward Agreement (EFA) blocks</text></g><!--class InstructionStatus--><g class="entity" data-entity="InstructionStatus" data-source-line="47" data-uid="ent0012" id="entity_InstructionStatus"><rect fill="#F1F1F1" height="105.1563" rx="2.5" ry="2.5" style="stroke:#181818;stroke-width:0.5;" width="151.54" x="881" y="588.2969"/><ellipse cx="896" cy="608.4297" fill="#ADD1B2" rx="11" ry="11" style="stroke:#181818;stroke-width:1;"/><path d="M898.9688,614.0703 Q898.3906,614.3672 897.75,614.5078 Q897.1094,614.6641 896.4063,614.6641 Q893.9063,614.6641 892.5781,613.0234 Q891.2656,611.3672 891.2656,608.2422 Q891.2656,605.1172 892.5781,603.4609 Q893.9063,601.8047 896.4063,601.8047 Q897.1094,601.8047 897.75,601.9609 Q898.4063,602.1172 898.9688,602.4141 L898.9688,605.1328 Q898.3438,604.5547 897.75,604.2891 Q897.1563,604.0078 896.5313,604.0078 Q895.1875,604.0078 894.5,605.0859 Q893.8125,606.1484 893.8125,608.2422 Q893.8125,610.3359 894.5,611.4141 Q895.1875,612.4766 896.5313,612.4766 Q897.1563,612.4766 897.75,612.2109 Q898.3438,611.9297 898.9688,611.3516 L898.9688,614.0703 Z " fill="#000000"/><text fill="#000000" font-family="sans-serif" font-size="12" font-style="italic" lengthAdjust="spacing" textLength="91.752" x="923.894" y="604.4355">&#171;enumeration&#187;</text><text fill="#000000" font-family="sans-serif" font-size="14" lengthAdjust="spacing" textLength="119.54" x="910" y="620.2607">InstructionStatus</text><line style="stroke:#181818;stroke-width:0.5;" x1="882" x2="1031.54" y1="628.5625" y2="628.5625"/><text fill="#000000" font-family="sans-serif" font-size="14" lengthAdjust="spacing" textLength="65.4609" x="887" y="645.5576">Accepted</text><text fill="#000000" font-family="sans-serif" font-size="14" lengthAdjust="spacing" textLength="61.5303" x="887" y="661.8545">Rejected</text><text fill="#000000" font-family="sans-serif" font-size="14" lengthAdjust="spacing" textLength="122.2607" x="887" y="678.1514">PartiallyAccepted</text><line style="stroke:#181818;stroke-width:0.5;" x1="882" x2="1031.54" y1="685.4531" y2="685.4531"/></g><!--class FlexibilityProduct--><g class="entity" data-entity="FlexibilityProduct" data-source-line="54" data-uid="ent0013" id="entity_FlexibilityProduct"><rect fill="#F1F1F1" height="178.375" rx="2.5" ry="2.5" style="stroke:#181818;stroke-width:0.5;" width="380.4639" x="1886" y="52.7969"/><ellipse cx="2011.5967" cy="68.7969" fill="#ADD1B2" rx="11" ry="11" style="stroke:#181818;stroke-width:1;"/><path d="M2014.5654,74.4375 Q2013.9873,74.7344 2013.3467,74.875 Q2012.7061,75.0313 2012.0029,75.0313 Q2009.5029,75.0313 2008.1748,73.3906 Q2006.8623,71.7344 2006.8623,68.6094 Q2006.8623,65.4844 2008.1748,63.8281 Q2009.5029,62.1719 2012.0029,62.1719 Q2012.7061,62.1719 2013.3467,62.3281 Q2014.0029,62.4844 2014.5654,62.7813 L2014.5654,65.5 Q2013.9404,64.9219 2013.3467,64.6563 Q2012.7529,64.375 2012.1279,64.375 Q2010.7842,64.375 2010.0967,65.4531 Q2009.4092,66.5156 2009.4092,68.6094 Q2009.4092,70.7031 2010.0967,71.7813 Q2010.7842,72.8438 2012.1279,72.8438 Q2012.7529,72.8438 2013.3467,72.5781 Q2013.9404,72.2969 2014.5654,71.7188 L2014.5654,74.4375 Z " fill="#000000"/><text fill="#000000" font-family="sans-serif" font-size="14" lengthAdjust="spacing" textLength="120.7705" x="2032.0967" y="73.6436">FlexibilityProduct</text><line style="stroke:#181818;stroke-width:0.5;" x1="1887" x2="2265.4639" y1="84.7969" y2="84.7969"/><text fill="#000000" font-family="sans-serif" font-size="14" lengthAdjust="spacing" textLength="344.9619" x="1892" y="101.792">+id : string  // Identifier for the Flexibility Product</text><text fill="#000000" font-family="sans-serif" font-size="14" lengthAdjust="spacing" textLength="98.5605" x="1892" y="118.0889">-name : string</text><text fill="#000000" font-family="sans-serif" font-size="14" lengthAdjust="spacing" textLength="136.6982" x="1892" y="134.3857">-description : string</text><text fill="#000000" font-family="sans-serif" font-size="14" lengthAdjust="spacing" textLength="291.6553" x="1892" y="150.6826">-serviceStructure : ServiceStructureEnum</text><text fill="#000000" font-family="sans-serif" font-size="14" lengthAdjust="spacing" textLength="221.8877" x="1892" y="166.9795">-priceSettingTimescales : string</text><text fill="#000000" font-family="sans-serif" font-size="14" lengthAdjust="spacing" textLength="368.4639" x="1892" y="183.2764">-availabilityRequirements : AvailabilityRequirements</text><text fill="#000000" font-family="sans-serif" font-size="14" lengthAdjust="spacing" textLength="354.0195" x="1892" y="199.5732">-utilisationRequirements : UtilisationRequirements</text><text fill="#000000" font-family="sans-serif" font-size="14" lengthAdjust="spacing" textLength="97.6924" x="1892" y="215.8701">-notes : string</text><line style="stroke:#181818;stroke-width:0.5;" x1="1887" x2="2265.4639" y1="223.1719" y2="223.1719"/></g><!--class FlexibilityProductCreate--><g class="entity" data-entity="FlexibilityProductCreate" data-source-line="65" data-uid="ent0014" id="entity_FlexibilityProductCreate"><rect fill="#F1F1F1" height="48" rx="2.5" ry="2.5" style="stroke:#181818;stroke-width:0.5;" width="199.5967" x="7" y="117.7969"/><ellipse cx="22" cy="133.7969" fill="#ADD1B2" rx="11" ry="11" style="stroke:#181818;stroke-width:1;"/><path d="M24.9688,139.4375 Q24.3906,139.7344 23.75,139.875 Q23.1094,140.0313 22.4063,140.0313 Q19.9063,140.0313 18.5781,138.3906 Q17.2656,136.7344 17.2656,133.6094 Q17.2656,130.4844 18.5781,128.8281 Q19.9063,127.1719 22.4063,127.1719 Q23.1094,127.1719 23.75,127.3281 Q24.4063,127.4844 24.9688,127.7813 L24.9688,130.5 Q24.3438,129.9219 23.75,129.6563 Q23.1563,129.375 22.5313,129.375 Q21.1875,129.375 20.5,130.4531 Q19.8125,131.5156 19.8125,133.6094 Q19.8125,135.7031 20.5,136.7813 Q21.1875,137.8438 22.5313,137.8438 Q23.1563,137.8438 23.75,137.5781 Q24.3438,137.2969 24.9688,136.7188 L24.9688,139.4375 Z " fill="#000000"/><text fill="#000000" font-family="sans-serif" font-size="14" lengthAdjust="spacing" textLength="167.5967" x="36" y="138.6436">FlexibilityProductCreate</text><line style="stroke:#181818;stroke-width:0.5;" x1="8" x2="205.5967" y1="149.7969" y2="149.7969"/><line style="stroke:#181818;stroke-width:0.5;" x1="8" x2="205.5967" y1="157.7969" y2="157.7969"/></g><!--class AvailabilityRequirements--><g class="entity" data-entity="AvailabilityRequirements" data-source-line="68" data-uid="ent0015" id="entity_AvailabilityRequirements"><rect fill="#F1F1F1" height="194.6719" rx="2.5" ry="2.5" style="stroke:#181818;stroke-width:0.5;" width="364.7686" x="1658.5" y="324.2969"/><ellipse cx="1748.936" cy="340.2969" fill="#ADD1B2" rx="11" ry="11" style="stroke:#181818;stroke-width:1;"/><path d="M1751.9048,345.9375 Q1751.3267,346.2344 1750.686,346.375 Q1750.0454,346.5313 1749.3423,346.5313 Q1746.8423,346.5313 1745.5142,344.8906 Q1744.2017,343.2344 1744.2017,340.1094 Q1744.2017,336.9844 1745.5142,335.3281 Q1746.8423,333.6719 1749.3423,333.6719 Q1750.0454,333.6719 1750.686,333.8281 Q1751.3423,333.9844 1751.9048,334.2813 L1751.9048,337 Q1751.2798,336.4219 1750.686,336.1563 Q1750.0923,335.875 1749.4673,335.875 Q1748.1235,335.875 1747.436,336.9531 Q1746.7485,338.0156 1746.7485,340.1094 Q1746.7485,342.2031 1747.436,343.2813 Q1748.1235,344.3438 1749.4673,344.3438 Q1750.0923,344.3438 1750.686,344.0781 Q1751.2798,343.7969 1751.9048,343.2188 L1751.9048,345.9375 Z " fill="#000000"/><text fill="#000000" font-family="sans-serif" font-size="14" lengthAdjust="spacing" textLength="175.3965" x="1769.436" y="345.1436">AvailabilityRequirements</text><line style="stroke:#181818;stroke-width:0.5;" x1="1659.5" x2="2022.2686" y1="356.2969" y2="356.2969"/><text fill="#000000" font-family="sans-serif" font-size="14" lengthAdjust="spacing" textLength="316.8047" x="1664.5" y="373.292">-acceptanceTiming : AcceptanceTimingEnum</text><text fill="#000000" font-family="sans-serif" font-size="14" lengthAdjust="spacing" textLength="254.0645" x="1664.5" y="389.5889">-availabilityChangesAllowed : YesNo</text><text fill="#000000" font-family="sans-serif" font-size="14" lengthAdjust="spacing" textLength="352.7686" x="1664.5" y="405.8857">-availabilityPaymentUnit : AvailabilityPaymentUnit</text><text fill="#000000" font-family="sans-serif" font-size="14" lengthAdjust="spacing" textLength="288.7363" x="1664.5" y="422.1826">-availabilityPeriod : AvailabilityPeriodUnit</text><text fill="#000000" font-family="sans-serif" font-size="14" lengthAdjust="spacing" textLength="263.9766" x="1664.5" y="438.4795">-availabilityRefinementTiming : string</text><text fill="#000000" font-family="sans-serif" font-size="14" lengthAdjust="spacing" textLength="272.0225" x="1664.5" y="454.7764">-availabilityRequestMechanism : string</text><text fill="#000000" font-family="sans-serif" font-size="14" lengthAdjust="spacing" textLength="255.8213" x="1664.5" y="471.0732">-minimumAggregateUnitSize : string</text><text fill="#000000" font-family="sans-serif" font-size="14" lengthAdjust="spacing" textLength="322.9639" x="1664.5" y="487.3701">-partialAvailabilityAcceptancePossible : YesNo</text><text fill="#000000" font-family="sans-serif" font-size="14" lengthAdjust="spacing" textLength="344.0186" x="1664.5" y="503.667">-timeVariableAvailabilityVolumesAllowed : YesNo</text><line style="stroke:#181818;stroke-width:0.5;" x1="1659.5" x2="2022.2686" y1="510.9688" y2="510.9688"/></g><!--class UtilisationRequirements--><g class="entity" data-entity="UtilisationRequirements" data-source-line="80" data-uid="ent0016" id="entity_UtilisationRequirements"><rect fill="#F1F1F1" height="210.9688" rx="2.5" ry="2.5" style="stroke:#181818;stroke-width:0.5;" width="473.248" x="2058.5" y="316.2969"/><ellipse cx="2206.6929" cy="332.2969" fill="#ADD1B2" rx="11" ry="11" style="stroke:#181818;stroke-width:1;"/><path d="M2209.6616,337.9375 Q2209.0835,338.2344 2208.4429,338.375 Q2207.8022,338.5313 2207.0991,338.5313 Q2204.5991,338.5313 2203.271,336.8906 Q2201.9585,335.2344 2201.9585,332.1094 Q2201.9585,328.9844 2203.271,327.3281 Q2204.5991,325.6719 2207.0991,325.6719 Q2207.8022,325.6719 2208.4429,325.8281 Q2209.0991,325.9844 2209.6616,326.2813 L2209.6616,329 Q2209.0366,328.4219 2208.4429,328.1563 Q2207.8491,327.875 2207.2241,327.875 Q2205.8804,327.875 2205.1929,328.9531 Q2204.5054,330.0156 2204.5054,332.1094 Q2204.5054,334.2031 2205.1929,335.2813 Q2205.8804,336.3438 2207.2241,336.3438 Q2207.8491,336.3438 2208.4429,336.0781 Q2209.0366,335.7969 2209.6616,335.2188 L2209.6616,337.9375 Z " fill="#000000"/><text fill="#000000" font-family="sans-serif" font-size="14" lengthAdjust="spacing" textLength="168.3623" x="2227.1929" y="337.1436">UtilisationRequirements</text><line style="stroke:#181818;stroke-width:0.5;" x1="2059.5" x2="2530.748" y1="348.2969" y2="348.2969"/><text fill="#000000" font-family="sans-serif" font-size="14" lengthAdjust="spacing" textLength="339.6572" x="2064.5" y="365.292">-deliveryExpectation : DeliveryExpectationEnum</text><text fill="#000000" font-family="sans-serif" font-size="14" lengthAdjust="spacing" textLength="231.957" x="2064.5" y="381.5889">-maximumResponseTime : string</text><text fill="#000000" font-family="sans-serif" font-size="14" lengthAdjust="spacing" textLength="230.084" x="2064.5" y="397.8857">-minimumUtilisationTime : string</text><text fill="#000000" font-family="sans-serif" font-size="14" lengthAdjust="spacing" textLength="248.5479" x="2064.5" y="414.1826">-minimumUtilisationVolume : string</text><text fill="#000000" font-family="sans-serif" font-size="14" lengthAdjust="spacing" textLength="309.1348" x="2064.5" y="430.4795">-partialUtilisationInstructionPossible : YesNo</text><text fill="#000000" font-family="sans-serif" font-size="14" lengthAdjust="spacing" textLength="281.4424" x="2064.5" y="446.7764">-paymentsDuringResponseTime : YesNo</text><text fill="#000000" font-family="sans-serif" font-size="14" lengthAdjust="spacing" textLength="336.9844" x="2064.5" y="463.0732">-timeVariableUtilisationVolumesAllowed : YesNo</text><text fill="#000000" font-family="sans-serif" font-size="14" lengthAdjust="spacing" textLength="461.248" x="2064.5" y="479.3701">-utilisationInstructionTimings : UtilisationInstructionTimingEnum[]</text><text fill="#000000" font-family="sans-serif" font-size="14" lengthAdjust="spacing" textLength="338.3242" x="2064.5" y="495.667">-utilisationPaymentUnit : UtilisationPaymentUnit</text><text fill="#000000" font-family="sans-serif" font-size="14" lengthAdjust="spacing" textLength="274.292" x="2064.5" y="511.9639">-utilisationPeriod : UtilisationPeriodUnit</text><line style="stroke:#181818;stroke-width:0.5;" x1="2059.5" x2="2530.748" y1="519.2656" y2="519.2656"/></g><!--class AvailabilityDeclaration--><g class="entity" data-entity="AvailabilityDeclaration" data-source-line="93" data-uid="ent0017" id="entity_AvailabilityDeclaration"><rect fill="#F1F1F1" height="162.0781" rx="2.5" ry="2.5" style="stroke:#181818;stroke-width:0.5;" width="795.0703" x="2312.5" y="60.7969"/><ellipse cx="2626.8643" cy="76.7969" fill="#ADD1B2" rx="11" ry="11" style="stroke:#181818;stroke-width:1;"/><path d="M2629.833,82.4375 Q2629.2549,82.7344 2628.6143,82.875 Q2627.9736,83.0313 2627.2705,83.0313 Q2624.7705,83.0313 2623.4424,81.3906 Q2622.1299,79.7344 2622.1299,76.6094 Q2622.1299,73.4844 2623.4424,71.8281 Q2624.7705,70.1719 2627.2705,70.1719 Q2627.9736,70.1719 2628.6143,70.3281 Q2629.2705,70.4844 2629.833,70.7813 L2629.833,73.5 Q2629.208,72.9219 2628.6143,72.6563 Q2628.0205,72.375 2627.3955,72.375 Q2626.0518,72.375 2625.3643,73.4531 Q2624.6768,74.5156 2624.6768,76.6094 Q2624.6768,78.7031 2625.3643,79.7813 Q2626.0518,80.8438 2627.3955,80.8438 Q2628.0205,80.8438 2628.6143,80.5781 Q2629.208,80.2969 2629.833,79.7188 L2629.833,82.4375 Z " fill="#000000"/><text fill="#000000" font-family="sans-serif" font-size="14" lengthAdjust="spacing" textLength="157.8418" x="2647.3643" y="81.6436">AvailabilityDeclaration</text><line style="stroke:#181818;stroke-width:0.5;" x1="2313.5" x2="3106.5703" y1="92.7969" y2="92.7969"/><text fill="#000000" font-family="sans-serif" font-size="14" lengthAdjust="spacing" textLength="130.5117" x="2318.5" y="109.792">-providerId : string</text><text fill="#000000" font-family="sans-serif" font-size="14" lengthAdjust="spacing" textLength="250.7695" x="2318.5" y="126.0889">-availabilityWindowStart : dateTime</text><text fill="#000000" font-family="sans-serif" font-size="14" lengthAdjust="spacing" textLength="243.1748" x="2318.5" y="142.3857">-availabilityWindowEnd : dateTime</text><text fill="#000000" font-family="sans-serif" font-size="14" lengthAdjust="spacing" textLength="172.9355" x="2318.5" y="158.6826">-declaredVolume : string</text><text fill="#000000" font-family="sans-serif" font-size="14" lengthAdjust="spacing" textLength="783.0703" x="2318.5" y="174.9795">-timeVariableVolumes : TimeVariableVolume[]  // Optional time series of volumes within the availability window</text><text fill="#000000" font-family="sans-serif" font-size="14" lengthAdjust="spacing" textLength="126.7109" x="2318.5" y="191.2764">-metadata : string</text><line style="stroke:#181818;stroke-width:0.5;" x1="2313.5" x2="3106.5703" y1="198.5781" y2="198.5781"/><text fill="#000000" font-family="sans-serif" font-size="14" lengthAdjust="spacing" textLength="524.2822" x="2318.5" y="215.5732">-productId : string  // Flexibility product id (references FlexibilityProduct.id)</text></g><!--class AvailabilityResponse--><g class="entity" data-entity="AvailabilityResponse" data-source-line="103" data-uid="ent0018" id="entity_AvailabilityResponse"><rect fill="#F1F1F1" height="129.4844" rx="2.5" ry="2.5" style="stroke:#181818;stroke-width:0.5;" width="256.2344" x="242" y="77.2969"/><ellipse cx="293.3687" cy="93.2969" fill="#ADD1B2" rx="11" ry="11" style="stroke:#181818;stroke-width:1;"/><path d="M296.3374,98.9375 Q295.7593,99.2344 295.1187,99.375 Q294.478,99.5313 293.7749,99.5313 Q291.2749,99.5313 289.9468,97.8906 Q288.6343,96.2344 288.6343,93.1094 Q288.6343,89.9844 289.9468,88.3281 Q291.2749,86.6719 293.7749,86.6719 Q294.478,86.6719 295.1187,86.8281 Q295.7749,86.9844 296.3374,87.2813 L296.3374,90 Q295.7124,89.4219 295.1187,89.1563 Q294.5249,88.875 293.8999,88.875 Q292.5562,88.875 291.8687,89.9531 Q291.1812,91.0156 291.1812,93.1094 Q291.1812,95.2031 291.8687,96.2813 Q292.5562,97.3438 293.8999,97.3438 Q294.5249,97.3438 295.1187,97.0781 Q295.7124,96.7969 296.3374,96.2188 L296.3374,98.9375 Z " fill="#000000"/><text fill="#000000" font-family="sans-serif" font-size="14" lengthAdjust="spacing" textLength="144.9971" x="313.8687" y="98.1436">AvailabilityResponse</text><line style="stroke:#181818;stroke-width:0.5;" x1="243" x2="497.2344" y1="109.2969" y2="109.2969"/><text fill="#000000" font-family="sans-serif" font-size="14" lengthAdjust="spacing" textLength="150.6914" x="248" y="126.292">-declarationId : string</text><text fill="#000000" font-family="sans-serif" font-size="14" lengthAdjust="spacing" textLength="176.4766" x="248" y="142.5889">-acceptedVolume : string</text><text fill="#000000" font-family="sans-serif" font-size="14" lengthAdjust="spacing" textLength="201.4346" x="248" y="158.8857">-partialAcceptance : boolean</text><text fill="#000000" font-family="sans-serif" font-size="14" lengthAdjust="spacing" textLength="244.2344" x="248" y="175.1826">-acceptanceTimestamp : dateTime</text><text fill="#000000" font-family="sans-serif" font-size="14" lengthAdjust="spacing" textLength="168.5879" x="248" y="191.4795">-response_notes : string</text><line style="stroke:#181818;stroke-width:0.5;" x1="243" x2="497.2344" y1="198.7813" y2="198.7813"/></g><!--class TimeVariableVolume--><g class="entity" data-entity="TimeVariableVolume" data-source-line="111" data-uid="ent0019" id="entity_TimeVariableVolume"><rect fill="#F1F1F1" height="96.8906" rx="2.5" ry="2.5" style="stroke:#181818;stroke-width:0.5;" width="177.6191" x="2972" y="373.2969"/><ellipse cx="2987" cy="389.2969" fill="#ADD1B2" rx="11" ry="11" style="stroke:#181818;stroke-width:1;"/><path d="M2989.9688,394.9375 Q2989.3906,395.2344 2988.75,395.375 Q2988.1094,395.5313 2987.4063,395.5313 Q2984.9063,395.5313 2983.5781,393.8906 Q2982.2656,392.2344 2982.2656,389.1094 Q2982.2656,385.9844 2983.5781,384.3281 Q2984.9063,382.6719 2987.4063,382.6719 Q2988.1094,382.6719 2988.75,382.8281 Q2989.4063,382.9844 2989.9688,383.2813 L2989.9688,386 Q2989.3438,385.4219 2988.75,385.1563 Q2988.1563,384.875 2987.5313,384.875 Q2986.1875,384.875 2985.5,385.9531 Q2984.8125,387.0156 2984.8125,389.1094 Q2984.8125,391.2031 2985.5,392.2813 Q2986.1875,393.3438 2987.5313,393.3438 Q2988.1563,393.3438 2988.75,393.0781 Q2989.3438,392.7969 2989.9688,392.2188 L2989.9688,394.9375 Z " fill="#000000"/><text fill="#000000" font-family="sans-serif" font-size="14" lengthAdjust="spacing" textLength="145.6191" x="3001" y="394.1436">TimeVariableVolume</text><line style="stroke:#181818;stroke-width:0.5;" x1="2973" x2="3148.6191" y1="405.2969" y2="405.2969"/><text fill="#000000" font-family="sans-serif" font-size="14" lengthAdjust="spacing" textLength="163.7275" x="2978" y="422.292">-periodStart : dateTime</text><text fill="#000000" font-family="sans-serif" font-size="14" lengthAdjust="spacing" textLength="156.1328" x="2978" y="438.5889">-periodEnd : dateTime</text><text fill="#000000" font-family="sans-serif" font-size="14" lengthAdjust="spacing" textLength="110.7217" x="2978" y="454.8857">-volume : string</text><line style="stroke:#181818;stroke-width:0.5;" x1="2973" x2="3148.6191" y1="462.1875" y2="462.1875"/></g><!--class UtilisationInstruction--><g class="entity" data-entity="UtilisationInstruction" data-source-line="117" data-uid="ent0020" id="entity_UtilisationInstruction"><rect fill="#F1F1F1" height="194.6719" rx="2.5" ry="2.5" style="stroke:#181818;stroke-width:0.5;" width="536.2822" x="3143" y="44.2969"/><ellipse cx="3334.3789" cy="60.2969" fill="#ADD1B2" rx="11" ry="11" style="stroke:#181818;stroke-width:1;"/><path d="M3337.3477,65.9375 Q3336.7695,66.2344 3336.1289,66.375 Q3335.4883,66.5313 3334.7852,66.5313 Q3332.2852,66.5313 3330.957,64.8906 Q3329.6445,63.2344 3329.6445,60.1094 Q3329.6445,56.9844 3330.957,55.3281 Q3332.2852,53.6719 3334.7852,53.6719 Q3335.4883,53.6719 3336.1289,53.8281 Q3336.7852,53.9844 3337.3477,54.2813 L3337.3477,57 Q3336.7227,56.4219 3336.1289,56.1563 Q3335.5352,55.875 3334.9102,55.875 Q3333.5664,55.875 3332.8789,56.9531 Q3332.1914,58.0156 3332.1914,60.1094 Q3332.1914,62.2031 3332.8789,63.2813 Q3333.5664,64.3438 3334.9102,64.3438 Q3335.5352,64.3438 3336.1289,64.0781 Q3336.7227,63.7969 3337.3477,63.2188 L3337.3477,65.9375 Z " fill="#000000"/><text fill="#000000" font-family="sans-serif" font-size="14" lengthAdjust="spacing" textLength="145.0244" x="3354.8789" y="65.1436">UtilisationInstruction</text><line style="stroke:#181818;stroke-width:0.5;" x1="3144" x2="3678.2822" y1="76.2969" y2="76.2969"/><text fill="#000000" font-family="sans-serif" font-size="14" lengthAdjust="spacing" textLength="318.2334" x="3149" y="93.292">+instructionId : string  // Instruction identifier</text><text fill="#000000" font-family="sans-serif" font-size="14" lengthAdjust="spacing" textLength="161.9434" x="3149" y="109.5889">-targetStart : dateTime</text><text fill="#000000" font-family="sans-serif" font-size="14" lengthAdjust="spacing" textLength="154.3486" x="3149" y="125.8857">-targetEnd : dateTime</text><text fill="#000000" font-family="sans-serif" font-size="14" lengthAdjust="spacing" textLength="186.7031" x="3149" y="142.1826">-instructionVolume : string</text><text fill="#000000" font-family="sans-serif" font-size="14" lengthAdjust="spacing" textLength="194.6396" x="3149" y="158.4795">-partialInstruction : boolean</text><text fill="#000000" font-family="sans-serif" font-size="14" lengthAdjust="spacing" textLength="248.418" x="3149" y="174.7764">-responseTimeRequirement : string</text><text fill="#000000" font-family="sans-serif" font-size="14" lengthAdjust="spacing" textLength="339.6572" x="3149" y="191.0732">-deliveryExpectation : DeliveryExpectationEnum</text><text fill="#000000" font-family="sans-serif" font-size="14" lengthAdjust="spacing" textLength="422.3652" x="3149" y="207.3701">-timeVariableVolumesForInstruction : TimeVariableVolume[]</text><line style="stroke:#181818;stroke-width:0.5;" x1="3144" x2="3678.2822" y1="214.6719" y2="214.6719"/><text fill="#000000" font-family="sans-serif" font-size="14" lengthAdjust="spacing" textLength="524.2822" x="3149" y="231.667">-productId : string  // Flexibility product id (references FlexibilityProduct.id)</text></g><!--class InstructionAck--><g class="entity" data-entity="InstructionAck" data-source-line="129" data-uid="ent0021" id="entity_InstructionAck"><rect fill="#F1F1F1" height="129.4844" rx="2.5" ry="2.5" style="stroke:#181818;stroke-width:0.5;" width="199.8926" x="7" y="357.2969"/><ellipse cx="52.541" cy="373.2969" fill="#ADD1B2" rx="11" ry="11" style="stroke:#181818;stroke-width:1;"/><path d="M55.5098,378.9375 Q54.9316,379.2344 54.291,379.375 Q53.6504,379.5313 52.9473,379.5313 Q50.4473,379.5313 49.1191,377.8906 Q47.8066,376.2344 47.8066,373.1094 Q47.8066,369.9844 49.1191,368.3281 Q50.4473,366.6719 52.9473,366.6719 Q53.6504,366.6719 54.291,366.8281 Q54.9473,366.9844 55.5098,367.2813 L55.5098,370 Q54.8848,369.4219 54.291,369.1563 Q53.6973,368.875 53.0723,368.875 Q51.7285,368.875 51.041,369.9531 Q50.3535,371.0156 50.3535,373.1094 Q50.3535,375.2031 51.041,376.2813 Q51.7285,377.3438 53.0723,377.3438 Q53.6973,377.3438 54.291,377.0781 Q54.8848,376.7969 55.5098,376.2188 L55.5098,378.9375 Z " fill="#000000"/><text fill="#000000" font-family="sans-serif" font-size="14" lengthAdjust="spacing" textLength="100.3105" x="73.041" y="378.1436">InstructionAck</text><line style="stroke:#181818;stroke-width:0.5;" x1="8" x2="205.8926" y1="389.2969" y2="389.2969"/><text fill="#000000" font-family="sans-serif" font-size="14" lengthAdjust="spacing" textLength="177.9463" x="13" y="406.292">-ack_instructionId : string</text><text fill="#000000" font-family="sans-serif" font-size="14" lengthAdjust="spacing" textLength="161.8955" x="13" y="422.5889">-ack_providerId : string</text><text fill="#000000" font-family="sans-serif" font-size="14" lengthAdjust="spacing" textLength="187.8926" x="13" y="438.8857">-ackTimestamp : dateTime</text><text fill="#000000" font-family="sans-serif" font-size="14" lengthAdjust="spacing" textLength="181.2275" x="13" y="455.1826">-status : InstructionStatus</text><text fill="#000000" font-family="sans-serif" font-size="14" lengthAdjust="spacing" textLength="129.0762" x="13" y="471.4795">-ack_notes : string</text><line style="stroke:#181818;stroke-width:0.5;" x1="8" x2="205.8926" y1="478.7813" y2="478.7813"/></g><!--link FlexibilityProduct to AvailabilityRequirements--><g class="link" data-entity-1="FlexibilityProduct" data-entity-2="AvailabilityRequirements" data-source-line="137" data-uid="lnk22" id="link_FlexibilityProduct_AvailabilityRequirements"><path codeLine="137" d="M2001.32,231.1369 C1976.32,260.7069 1952.2033,289.2445 1926.6933,319.4245" fill="none" id="FlexibilityProduct-to-AvailabilityRequirements" style="stroke:#181818;stroke-width:1;"/><polygon fill="#181818" points="1922.82,324.0069,1931.6848,319.7156,1926.0477,320.1883,1925.575,314.5512,1922.82,324.0069" style="stroke:#181818;stroke-width:1;"/><text fill="#000000" font-family="sans-serif" font-size="13" lengthAdjust="spacing" textLength="161.9414" x="1966" y="282.3638">availabilityRequirements</text></g><!--link FlexibilityProduct to UtilisationRequirements--><g class="link" data-entity-1="FlexibilityProduct" data-entity-2="UtilisationRequirements" data-source-line="138" data-uid="lnk23" id="link_FlexibilityProduct_UtilisationRequirements"><path codeLine="138" d="M2145.59,231.1369 C2166.89,258.1669 2186.7968,283.4439 2208.8568,311.4439" fill="none" id="FlexibilityProduct-to-UtilisationRequirements" style="stroke:#181818;stroke-width:1;"/><polygon fill="#181818" points="2212.57,316.1569,2210.1422,306.6119,2209.4757,312.2294,2203.8582,311.5628,2212.57,316.1569" style="stroke:#181818;stroke-width:1;"/><text fill="#000000" font-family="sans-serif" font-size="13" lengthAdjust="spacing" textLength="155.0605" x="2186" y="282.3638">utilisationRequirements</text></g><!--link AvailabilityDeclaration to TimeVariableVolume--><g class="link" data-entity-1="AvailabilityDeclaration" data-entity-2="TimeVariableVolume" data-source-line="139" data-uid="lnk24" id="link_AvailabilityDeclaration_TimeVariableVolume"><path codeLine="139" d="M2811.05,222.8369 C2872.52,271.5169 2944.2363,328.3219 2996.2863,369.5419" fill="none" id="AvailabilityDeclaration-to-TimeVariableVolume" style="stroke:#181818;stroke-width:1;"/><polygon fill="#181818" points="3000.99,373.2669,2996.4178,364.5436,2997.0703,370.1627,2991.4512,370.8152,3000.99,373.2669" style="stroke:#181818;stroke-width:1;"/><text fill="#000000" font-family="sans-serif" font-size="13" lengthAdjust="spacing" textLength="139.147" x="2886" y="282.3638">timeVariableVolumes</text></g><!--link UtilisationInstruction to TimeVariableVolume--><g class="link" data-entity-1="UtilisationInstruction" data-entity-2="TimeVariableVolume" data-source-line="140" data-uid="lnk25" id="link_UtilisationInstruction_TimeVariableVolume"><path codeLine="140" d="M3289.08,239.6369 C3232.26,284.7669 3171.8985,332.7154 3125.8385,369.2954" fill="none" id="UtilisationInstruction-to-TimeVariableVolume" style="stroke:#181818;stroke-width:1;"/><polygon fill="#181818" points="3121.14,373.0269,3130.6754,370.562,3125.0554,369.9173,3125.7001,364.2973,3121.14,373.0269" style="stroke:#181818;stroke-width:1;"/><text fill="#000000" font-family="sans-serif" font-size="13" lengthAdjust="spacing" textLength="229.4995" x="3247" y="282.3638">timeVariableVolumesForInstruction</text></g><!--SRC=[lLRDRjiu4BxxAOYUMYnIzsmK0OJ40N98OyH9Ww8e0beSowmfKYKf9zwYJxDlia-sGqgMAOaqqiCM0HoAyyEP-MO-qd8hW6IrLMS5ID3K0YECqqBJagormXy1Btp51RVxfqehLkVMF54qU5_LfPYOBPSLTTgveCParcg-gYrSvqek-Tz0Famc5Sstj03oPYxhqhmXFoTUbon1xtWEIwlHQQt1YSd7Zu3_N2HSoVDpL2RamUBvnk-GModsk9NjA1UqYOjGoKAToQ_sW2pFeR9Kvd3FIowBv06P9VUQCd3BjGNTVXtyV07pIKKDKOA_dzJno22k1TsN8Es3v3Pg_Ey_qvl7wUQmQXURk2_GNB6agxc072kVksfSAVrCDIDPeG5S0EJj_2fxHrP2vLiNxX8iekubZLktUSCbmcQwmoz1y1te_VobGjV-h6JvBfIqQAvgvsW1TDjPT-u2UAwbyOZZylMmt5QjY0hykWCg21exoINTasm3bE7w4M3RVaGEVXKU7HnJ0zG4pHGw-jDW12LR8XQrYPVBjpimNw3l68DVBgYsd0gnxyI_yAzrV7MSxaKptDxJNuGpCYDuAC93o7HAhXb6oDSSPsEjDB4R26r9QuocPqJI4ZfZlyF0v9fNVdvx0ZDW09J6IC7hLjfjOxNGs45lSYh0zFtHO6Bku4VDjQ-iqyeI8czN7x4Tc3t49KsYoeO1d2ZgXGPaLYnjfvCAnvSV4nambqiWGcQZf2ysL1PWCY7KCpW8FNMDrC99cAKuQspb-tDeqCr2184rbpwjBeaJM86nDv1Z_DoKVKsqvMLTPWNEK85rT8VvkwMdLJLz7iPsBDb26SDN0deLiTX5dwdc50MXsMSbSBH6HUomI_H42nqR4oUwID1fanzzSVdTWQcKD0vUY1OWEFSrEaqQqIB5sJXQfAff27DPEoU36EEr7CKGxSVwn8qmcBpeZV7rsz1DlwlZn3-oEVHqbDxZyte9kDSmRujv-p2w7f1co92jYYFMjnhMe07RCiOLxpbxTt2wumnqu7KqE8zSClMCTu9sAJCSZlPMZAdD9HigCPyAi5YlX92sEAB2_MZtwpUVx6tLNC_UpZ4xHtsr9hlMz9dR3PV-vWX3mtqNMzF3O2c6HoESskVBfWcxWUlW69MglV9EZCAH8r2yKae0bMCAHdAYPJMidcu3UKhT1EDY7Hh6jrWKjqOKmMetI2B6Hy6a_7-jYQ-3up53ns44l7iqD0r5TG4scdGZYYGTd7G2nF3GFeew8Ao0h8Vlaz-bxCXiu4kl7qPiKewW1RfPlksk_UrJlBQTECaA-JRPfwPvCyx6xyZExRY38q_3ixFpzCDbbdnzfLmz95zTYVVO9CN2pbjarcOnd2Q9SVaT7tsi9_y1]--></g></svg>